<svg xmlns="http://www.w3.org/2000/svg" viewBox="0 0 128 128">
  <rect width="128" height="128" rx="18" fill="#3178c6"/>
  <path fill="#fff" d="M22.67 47h99.67v13.67H74.67V107H60.33V60.67H22.67zM101 74.33c-10.67 0-16 4.33-16 12 0 5.33 3.33 8.67 10 10.67l6.33 1.67c4 1 5.33 2 5.33 4 0 2.67-2.67 4.33-7 4.33-4.67 0-8.33-1.67-11-4.67l-8.33 6.67c4.33 5.67 11 8.67 19.33 8.67 11.33 0 18.33-5.33 18.33-13.67 0-6.67-3.67-10-11.33-12.33l-6.33-1.67c-3.33-1-4.67-2-4.67-3.67 0-2 2-3.67 5.33-3.67 3 0 5.67 1.33 7.67 3.67l8-6.33c-4-4.67-9.67-7-15.67-7z"/>
</svg>
